<svg width="234" height="34" viewBox="0 0 234 34" fill="none" xmlns="http://www.w3.org/2000/svg">
<path d="M13.0759 12.348V2.484H15.8839V27H13.5799L13.2199 24.12C12.6679 25.2 11.9359 26.016 11.0239 26.568C10.1119 27.12 9.11588 27.396 8.03588 27.396C5.85188 27.396 4.01588 26.556 2.52788 24.876C1.06388 23.196 0.331875 21.012 0.331875 18.324C0.331875 15.612 1.05188 13.44 2.49188 11.808C3.95588 10.176 5.79188 9.36 7.99988 9.36C10.2319 9.36 11.9239 10.356 13.0759 12.348ZM8.17988 11.88C6.78788 11.88 5.61188 12.468 4.65188 13.644C3.71588 14.82 3.24788 16.392 3.24788 18.36C3.24788 20.328 3.72788 21.912 4.68788 23.112C5.64788 24.288 6.79988 24.876 8.14388 24.876C9.48788 24.876 10.6279 24.432 11.5639 23.544C12.5239 22.632 13.0279 21.42 13.0759 19.908V17.1C13.0759 15.492 12.6079 14.22 11.6719 13.284C10.7359 12.348 9.57188 11.88 8.17988 11.88ZM29.1229 25.092C31.4989 25.092 32.8549 24.048 33.1909 21.96H36.1069C35.8429 23.688 35.0749 25.032 33.8029 25.992C32.5549 26.928 30.9949 27.396 29.1229 27.396C26.8189 27.396 24.9469 26.58 23.5069 24.948C22.0669 23.292 21.3469 21.096 21.3469 18.36C21.3469 15.624 22.0669 13.44 23.5069 11.808C24.9709 10.176 26.9029 9.36 29.3029 9.36C31.7269 9.36 33.5269 10.296 34.7029 12.168C35.9029 14.04 36.3229 16.32 35.9629 19.008H24.1909C24.1909 20.784 24.6229 22.248 25.4869 23.4C26.3509 24.528 27.5629 25.092 29.1229 25.092ZM31.2109 12.06C30.6589 11.772 29.9869 11.628 29.1949 11.628C27.7309 11.628 26.5669 12.132 25.7029 13.14C24.8629 14.124 24.3709 15.36 24.2269 16.848H33.4069C33.4069 14.448 32.6749 12.852 31.2109 12.06ZM40.8102 14.004C40.8102 12.588 41.4102 11.46 42.6102 10.62C43.8342 9.78 45.4782 9.36 47.5422 9.36C49.6062 9.36 51.2142 9.792 52.3662 10.656C53.5422 11.52 54.1542 12.612 54.2022 13.932H51.4302C51.2142 12.372 49.8942 11.592 47.4702 11.592C46.2942 11.592 45.3822 11.856 44.7342 12.384C44.1102 12.912 43.7982 13.488 43.7982 14.112C43.7982 14.712 44.0382 15.228 44.5182 15.66C44.9982 16.068 45.7662 16.428 46.8222 16.74L50.2782 17.892C51.7422 18.348 52.8582 18.936 53.6262 19.656C54.4182 20.352 54.8142 21.324 54.8142 22.572C54.8142 23.796 54.1782 24.912 52.9062 25.92C51.6342 26.904 49.8582 27.396 47.5782 27.396C45.2982 27.396 43.5222 26.892 42.2502 25.884C40.9782 24.852 40.3062 23.532 40.2342 21.924H42.9702C43.0182 23.004 43.4502 23.82 44.2662 24.372C45.1062 24.9 46.1502 25.164 47.3982 25.164C48.6462 25.164 49.6782 24.9 50.4942 24.372C51.3102 23.844 51.7182 23.22 51.7182 22.5C51.7182 21.756 51.4782 21.192 50.9982 20.808C50.5182 20.424 49.7382 20.088 48.6582 19.8L45.3102 18.684C42.3102 17.796 40.8102 16.236 40.8102 14.004ZM69.6594 26.496C67.5954 27.456 65.7114 27.66 64.0074 27.108C62.7834 26.724 61.9194 25.92 61.4154 24.696C61.1514 24.096 61.0194 23.376 61.0194 22.536V11.952H58.2474V9.792H61.0194V5.004H63.8274V9.792H69.2274V11.952H63.8274V22.5C63.8274 24.252 64.6434 25.128 66.2754 25.128C67.1634 25.128 68.1594 24.912 69.2634 24.48L69.6594 26.496ZM74.3746 9.756H77.2186V27H74.3746V9.756ZM75.7786 5.724C75.2026 5.724 74.7466 5.568 74.4106 5.256C74.0986 4.92 73.9426 4.488 73.9426 3.96C73.9426 3.408 74.0986 2.976 74.4106 2.664C74.7466 2.328 75.2026 2.16 75.7786 2.16C76.3546 2.16 76.8106 2.328 77.1466 2.664C77.5066 2.976 77.6866 3.408 77.6866 3.96C77.6866 4.488 77.5066 4.92 77.1466 5.256C76.8106 5.568 76.3546 5.724 75.7786 5.724ZM87.6884 13.104C88.8164 10.608 90.7484 9.36 93.4844 9.36C95.5244 9.36 97.1084 10.032 98.2364 11.376C99.3884 12.72 99.9644 14.556 99.9644 16.884V27H97.1564V16.884C97.1564 15.228 96.7604 13.98 95.9684 13.14C95.2004 12.3 94.0964 11.88 92.6564 11.88C91.2164 11.88 90.0524 12.468 89.1644 13.644C88.2764 14.82 87.8084 16.452 87.7604 18.54V27H84.9164V9.792H87.3644L87.6884 13.104ZM112.836 9.36C115.236 9.36 117.168 10.14 118.632 11.7C120.12 13.26 120.864 15.492 120.864 18.396C120.864 21.276 120.12 23.496 118.632 25.056C117.168 26.616 115.236 27.396 112.836 27.396C110.436 27.396 108.492 26.616 107.004 25.056C105.54 23.496 104.808 21.276 104.808 18.396C104.808 15.492 105.54 13.26 107.004 11.7C108.492 10.14 110.436 9.36 112.836 9.36ZM117.984 18.396C117.984 16.332 117.552 14.724 116.688 13.572C115.824 12.396 114.552 11.808 112.872 11.808C111.216 11.808 109.944 12.396 109.056 13.572C108.168 14.724 107.724 16.332 107.724 18.396C107.724 20.436 108.144 22.044 108.984 23.22C109.824 24.372 111.072 24.948 112.728 24.948C114.408 24.948 115.704 24.372 116.616 23.22C117.528 22.044 117.984 20.436 117.984 18.396Z" fill="#272727"/>
<path d="M133.892 27.36C132.044 27.36 130.328 27.048 128.744 26.424C127.184 25.776 125.924 24.828 124.964 23.58C124.028 22.332 123.536 20.832 123.488 19.08C123.488 18.864 123.56 18.684 123.704 18.54C123.848 18.372 124.04 18.288 124.28 18.288H129.14C129.452 18.288 129.692 18.372 129.86 18.54C130.052 18.708 130.22 18.96 130.364 19.296C130.748 21.216 131.984 22.176 134.072 22.176C135.272 22.176 136.196 21.78 136.844 20.988C137.492 20.196 137.816 19.056 137.816 17.568V7.164H126.152C125.912 7.164 125.696 7.08 125.504 6.912C125.336 6.72 125.252 6.504 125.252 6.264V2.7C125.252 2.436 125.336 2.22 125.504 2.052C125.696 1.884 125.912 1.8 126.152 1.8H143.576C143.84 1.8 144.056 1.884 144.224 2.052C144.416 2.22 144.512 2.436 144.512 2.7V17.748C144.512 19.788 144.068 21.528 143.18 22.968C142.292 24.408 141.044 25.5 139.436 26.244C137.828 26.988 135.98 27.36 133.892 27.36ZM154.482 27.36C153.21 27.36 152.046 27.12 150.99 26.64C149.958 26.136 149.142 25.464 148.542 24.624C147.966 23.76 147.678 22.812 147.678 21.78C147.678 20.124 148.35 18.792 149.694 17.784C151.062 16.776 152.934 16.08 155.31 15.696L159.81 15.012V14.508C159.81 13.596 159.618 12.924 159.234 12.492C158.85 12.06 158.202 11.844 157.29 11.844C156.738 11.844 156.282 11.94 155.922 12.132C155.562 12.324 155.19 12.588 154.806 12.924C154.47 13.212 154.218 13.404 154.05 13.5C153.978 13.692 153.846 13.788 153.654 13.788H149.73C149.49 13.788 149.286 13.716 149.118 13.572C148.974 13.404 148.914 13.212 148.938 12.996C148.962 12.348 149.274 11.628 149.874 10.836C150.498 10.044 151.434 9.36 152.682 8.784C153.954 8.208 155.514 7.92 157.362 7.92C160.314 7.92 162.498 8.58 163.914 9.9C165.33 11.196 166.038 12.948 166.038 15.156V26.1C166.038 26.34 165.954 26.556 165.786 26.748C165.618 26.916 165.402 27 165.138 27H160.962C160.722 27 160.506 26.916 160.314 26.748C160.146 26.556 160.062 26.34 160.062 26.1V24.84C159.534 25.584 158.79 26.196 157.83 26.676C156.894 27.132 155.778 27.36 154.482 27.36ZM156.174 23.256C157.278 23.256 158.166 22.896 158.838 22.176C159.534 21.456 159.882 20.4 159.882 19.008V18.504L156.822 19.044C154.662 19.428 153.582 20.184 153.582 21.312C153.582 21.912 153.834 22.392 154.338 22.752C154.842 23.088 155.454 23.256 156.174 23.256ZM171.001 33.84C170.761 33.84 170.545 33.756 170.353 33.588C170.185 33.42 170.101 33.204 170.101 32.94V9.18C170.101 8.916 170.185 8.7 170.353 8.532C170.545 8.364 170.761 8.28 171.001 8.28H175.069C175.333 8.28 175.549 8.364 175.717 8.532C175.885 8.7 175.969 8.916 175.969 9.18V10.476C177.265 8.772 179.125 7.92 181.549 7.92C183.901 7.92 185.737 8.652 187.057 10.116C188.377 11.58 189.097 13.644 189.217 16.308C189.241 16.62 189.253 17.064 189.253 17.64C189.253 18.216 189.241 18.66 189.217 18.972C189.121 21.564 188.401 23.616 187.057 25.128C185.713 26.616 183.877 27.36 181.549 27.36C179.197 27.36 177.445 26.556 176.293 24.948V32.94C176.293 33.204 176.209 33.42 176.041 33.588C175.873 33.756 175.657 33.84 175.393 33.84H171.001ZM179.605 22.536C180.733 22.536 181.537 22.2 182.017 21.528C182.521 20.856 182.809 19.932 182.881 18.756C182.929 18.276 182.953 17.904 182.953 17.64C182.953 17.376 182.929 17.004 182.881 16.524C182.809 15.348 182.521 14.424 182.017 13.752C181.537 13.08 180.733 12.744 179.605 12.744C178.501 12.744 177.685 13.092 177.157 13.788C176.653 14.46 176.365 15.336 176.293 16.416L176.257 17.748L176.293 19.116C176.341 20.1 176.641 20.916 177.193 21.564C177.745 22.212 178.549 22.536 179.605 22.536ZM201.668 27.36C198.692 27.36 196.4 26.652 194.792 25.236C193.184 23.82 192.308 21.828 192.164 19.26C192.14 18.948 192.128 18.408 192.128 17.64C192.128 16.872 192.14 16.332 192.164 16.02C192.308 13.476 193.208 11.496 194.864 10.08C196.52 8.64 198.788 7.92 201.668 7.92C204.572 7.92 206.852 8.64 208.508 10.08C210.164 11.496 211.064 13.476 211.208 16.02C211.232 16.332 211.244 16.872 211.244 17.64C211.244 18.408 211.232 18.948 211.208 19.26C211.064 21.828 210.188 23.82 208.58 25.236C206.972 26.652 204.668 27.36 201.668 27.36ZM201.668 22.968C202.724 22.968 203.504 22.656 204.008 22.032C204.512 21.384 204.8 20.4 204.872 19.08C204.896 18.84 204.908 18.36 204.908 17.64C204.908 16.92 204.896 16.44 204.872 16.2C204.8 14.904 204.5 13.932 203.972 13.284C203.468 12.636 202.7 12.312 201.668 12.312C199.676 12.312 198.62 13.608 198.5 16.2L198.464 17.64L198.5 19.08C198.548 20.4 198.824 21.384 199.328 22.032C199.856 22.656 200.636 22.968 201.668 22.968ZM199.58 5.58C199.196 5.58 199.004 5.388 199.004 5.004C199.004 4.812 199.064 4.656 199.184 4.536L202.352 0.684C202.592 0.395999 202.796 0.215999 202.964 0.143998C203.132 0.047998 203.372 -2.14577e-06 203.684 -2.14577e-06H208.436C208.652 -2.14577e-06 208.82 0.0719984 208.94 0.215999C209.06 0.335999 209.12 0.503999 209.12 0.719999C209.12 0.887999 209.06 1.032 208.94 1.152L204.152 5.076C203.936 5.244 203.732 5.376 203.54 5.472C203.348 5.544 203.096 5.58 202.784 5.58H199.58ZM215.719 27C215.455 27 215.239 26.916 215.071 26.748C214.903 26.58 214.819 26.364 214.819 26.1V9.18C214.819 8.916 214.903 8.7 215.071 8.532C215.239 8.364 215.455 8.28 215.719 8.28H219.859C220.123 8.28 220.339 8.364 220.507 8.532C220.699 8.7 220.795 8.916 220.795 9.18V10.548C221.443 9.756 222.271 9.12 223.279 8.64C224.311 8.16 225.475 7.92 226.771 7.92C228.883 7.92 230.599 8.64 231.919 10.08C233.239 11.496 233.899 13.488 233.899 16.056V26.1C233.899 26.34 233.815 26.556 233.647 26.748C233.479 26.916 233.263 27 232.999 27H228.463C228.223 27 228.007 26.916 227.815 26.748C227.647 26.556 227.563 26.34 227.563 26.1V16.272C227.563 15.144 227.287 14.28 226.735 13.68C226.183 13.056 225.391 12.744 224.359 12.744C223.351 12.744 222.559 13.056 221.983 13.68C221.407 14.28 221.119 15.144 221.119 16.272V26.1C221.119 26.34 221.035 26.556 220.867 26.748C220.699 26.916 220.483 27 220.219 27H215.719Z" fill="#BD1E1E"/>
</svg>
